<?xml version="1.0" encoding="UTF-8" standalone="no"?>
<svg
   xmlns:dc="http://purl.org/dc/elements/1.1/"
   xmlns:cc="http://creativecommons.org/ns#"
   xmlns:rdf="http://www.w3.org/1999/02/22-rdf-syntax-ns#"
   xmlns:svg="http://www.w3.org/2000/svg"
   xmlns="http://www.w3.org/2000/svg"
   xmlns:sodipodi="http://sodipodi.sourceforge.net/DTD/sodipodi-0.dtd"
   xmlns:inkscape="http://www.inkscape.org/namespaces/inkscape"
   height="24px"
   version="1.1"
   viewBox="0 0 24 24"
   width="24px"
   id="svg3744"
   sodipodi:docname="clearIcon.svg"
   inkscape:version="0.92.0 r">
  <metadata
     id="metadata3748">
    <rdf:RDF>
      <cc:Work
         rdf:about="">
        <dc:format>image/svg+xml</dc:format>
        <dc:type
           rdf:resource="http://purl.org/dc/dcmitype/StillImage" />
      </cc:Work>
    </rdf:RDF>
  </metadata>
  <sodipodi:namedview
     pagecolor="#ffffff"
     bordercolor="#666666"
     borderopacity="1"
     objecttolerance="10"
     gridtolerance="10"
     guidetolerance="10"
     inkscape:pageopacity="0"
     inkscape:pageshadow="2"
     inkscape:window-width="1436"
     inkscape:window-height="855"
     id="namedview3746"
     showgrid="false"
     inkscape:zoom="27.208333"
     inkscape:cx="8.8392037"
     inkscape:cy="10.548239"
     inkscape:window-x="4"
     inkscape:window-y="23"
     inkscape:window-maximized="0"
     inkscape:current-layer="Artboard-1" />
  <title
     id="title3734" />
  <desc
     id="desc3736" />
  <defs
     id="defs3738" />
  <g
     fill="none"
     fill-rule="evenodd"
     id="miu">
    <g
       id="Artboard-1"
       transform="translate(-575.000000, -155.000000)">
      <g
         id="slice"
         transform="translate(215.000000, 119.000000)" />
      <path
         d="m 586.97826,178.02174 c 6.07508,0 11,-4.92487 11,-11 0,-6.07513 -4.92492,-11 -11,-11 -6.07508,0 -11,4.92487 -11,11 0,6.07513 4.92492,11 11,11 z m 0,-0.95652 c 5.54686,0 10.04344,-4.49662 10.04344,-10.04348 0,-5.54686 -4.49658,-10.04348 -10.04344,-10.04348 -5.54686,0 -10.04344,4.49662 -10.04344,10.04348 0,5.54686 4.49658,10.04348 10.04344,10.04348 z m -4.05812,-5.30894 -0.6765,-0.67637 4.05812,-4.05817 -4.05812,-4.05817 0.6765,-0.67637 4.05812,4.05817 4.05812,-4.05817 0.6765,0.67637 -4.05812,4.05817 4.05812,4.05817 -0.6765,0.67637 -4.05812,-4.05817 z"
         id="circle-close-delete-remove-outline"
         style="fill:#ffffff;stroke:#fffffa;stroke-width:0.95652181;stroke-opacity:1"
         inkscape:connector-curvature="0" />
    </g>
  </g>
</svg>
